<?xml version="1.0" encoding="UTF-8" standalone="no"?>
<!DOCTYPE svg PUBLIC "-//W3C//DTD SVG 1.1//EN" "http://www.w3.org/Graphics/SVG/1.1/DTD/svg11.dtd">
<svg width="100%" height="100%" viewBox="0 0 256 256" version="1.1" xmlns="http://www.w3.org/2000/svg" xmlns:xlink="http://www.w3.org/1999/xlink" xml:space="preserve" xmlns:serif="http://www.serif.com/" style="fill-rule:evenodd;clip-rule:evenodd;stroke-linejoin:round;stroke-miterlimit:2;">
    <circle cx="127.6" cy="127.6" r="121.6" style="fill:rgb(147,187,58);"/>
    <g transform="matrix(0.288169,0,0,0.288169,53.7493,53.78)">
        <path d="M342.198,0.501C342.571,-0.03 343.303,-0.16 343.835,0.213L380.189,25.668C380.721,26.04 380.85,26.773 380.478,27.305L329.879,99.567C354.478,107.426 371.237,115.903 371.237,115.903C371.237,115.903 330.273,186.365 260.794,186.365C191.315,186.365 141.944,120.693 141.944,120.693C141.944,120.693 159.45,109.521 185.4,99.939L129.9,33.798C129.483,33.3 129.548,32.559 130.045,32.142L164.042,3.615C164.54,3.197 165.281,3.262 165.698,3.76L235.97,87.506C241.987,86.826 248.117,86.445 254.303,86.445C263.194,86.445 272.074,87.121 280.743,88.268L342.198,0.501ZM355.944,189.702C374.485,176.46 402.541,141.898 402.541,141.898C402.541,141.898 474.205,198.688 474.205,319.104C474.205,439.519 350.309,511.992 350.309,511.992C350.309,511.992 291.114,452.211 276.582,376.43C262.051,300.649 298.078,216.503 298.078,216.503C298.078,216.503 337.402,202.944 355.944,189.702ZM156.261,189.702C137.72,176.46 109.664,141.898 109.664,141.898C109.664,141.898 38,198.688 38,319.104C38,439.519 161.896,511.992 161.896,511.992C161.896,511.992 221.091,452.211 235.623,376.43C250.154,300.649 214.127,216.503 214.127,216.503C214.127,216.503 174.803,202.944 156.261,189.702Z" style="fill:white;"/>
    </g>
</svg>
