<?xml version="1.0" encoding="UTF-8" standalone="no"?>
<!DOCTYPE svg PUBLIC "-//W3C//DTD SVG 1.1//EN" "http://www.w3.org/Graphics/SVG/1.1/DTD/svg11.dtd">
<svg width="100%" height="100%" viewBox="0 0 256 256" version="1.1" xmlns="http://www.w3.org/2000/svg" xmlns:xlink="http://www.w3.org/1999/xlink" xml:space="preserve" xmlns:serif="http://www.serif.com/" style="fill-rule:evenodd;clip-rule:evenodd;stroke-linejoin:round;stroke-miterlimit:2;">
    <circle cx="127.6" cy="127.6" r="121.6" style="fill:rgb(96,111,186);"/>
    <g transform="matrix(0.260574,0,0,0.260574,60.843,60.843)">
        <path d="M368.952,510.227C322.769,512.591 269.896,512.591 251.928,510.227C111.77,491.788 0,389.313 0,250.8C0,112.287 114.615,0 256,0C397.385,0 512,112.287 512,250.8C512,315.221 487.207,373.969 446.46,418.387C435.395,430.448 450.577,438.908 466.002,447.504C481.13,455.935 496.492,464.496 487.564,476.712C477.726,490.173 424.392,507.389 368.952,510.227ZM220,219.45C220,241.092 202.091,258.637 180,258.637C157.909,258.637 140,241.092 140,219.45C140,204.935 148.055,192.264 160.024,185.491C160.713,204.362 176.229,219.449 195.269,219.449L220,219.449L220,219.45ZM343.976,185.491C343.287,204.362 327.771,219.449 308.731,219.449L284,219.449L284,219.45C284,241.092 301.909,258.637 324,258.637C346.091,258.637 364,241.092 364,219.45C364,204.935 355.945,192.264 343.976,185.491Z" style="fill:white;"/>
    </g>
</svg>
