<?xml version="1.0" encoding="UTF-8" standalone="no"?>
<!DOCTYPE svg PUBLIC "-//W3C//DTD SVG 1.1//EN" "http://www.w3.org/Graphics/SVG/1.1/DTD/svg11.dtd">
<svg width="100%" height="100%" viewBox="0 0 256 256" version="1.1" xmlns="http://www.w3.org/2000/svg" xmlns:xlink="http://www.w3.org/1999/xlink" xml:space="preserve" xmlns:serif="http://www.serif.com/" style="fill-rule:evenodd;clip-rule:evenodd;stroke-linejoin:round;stroke-miterlimit:2;">
    <circle cx="127.6" cy="127.6" r="121.6" style="fill:rgb(99,188,93);"/>
    <g transform="matrix(0.302327,0,0,0.302327,45.2788,49.8441)">
        <path d="M97.412,440.649C95.655,438.996 93.917,437.311 92.199,435.593C1.514,344.909 1.514,197.88 92.199,107.196C182.883,16.511 471.839,10.444 471.839,10.444C471.839,10.444 511.281,344.909 420.597,435.593C340.057,516.133 215.075,525.143 124.592,462.624L197.5,373.153L314.05,347.99L218.911,338.479L279.373,276.917L348.197,261.84L293.775,245.723L348.197,147.547L270.787,234.375L240.894,192.192L251.417,261.84L197.5,322.622L172.507,245.722L172.507,347.99L97.412,440.649Z" style="fill:white;"/>
    </g>
</svg>
